<?xml version="1.0" encoding="UTF-8"?>
<svg version="1.1" xmlns="http://www.w3.org/2000/svg" width="512" height="512">
<path d="M0 0 C0.99868909 -0.00297112 1.99737819 -0.00594224 3.02633059 -0.0090034 C6.35908455 -0.01764635 9.69180239 -0.01919493 13.02456665 -0.02069092 C15.42015662 -0.02532233 17.81574585 -0.03034742 20.21133423 -0.03573608 C26.71186048 -0.04883371 33.21237985 -0.05533771 39.71291685 -0.05974674 C43.78023756 -0.06251761 47.84755591 -0.06675656 51.91487503 -0.07125092 C63.19913521 -0.08343966 74.48339352 -0.09373856 85.76766014 -0.09712601 C86.48888342 -0.09734557 87.2101067 -0.09756514 87.95318524 -0.09779136 C88.67603937 -0.09800964 89.39889351 -0.09822791 90.14365232 -0.09845281 C91.60818887 -0.09889626 93.07272542 -0.09934282 94.53726196 -0.09979248 C95.2637076 -0.10001391 95.99015323 -0.10023534 96.73861237 -0.10046348 C108.48858398 -0.10440477 120.23849332 -0.12184006 131.98844092 -0.145152 C144.08217627 -0.16895013 156.17588049 -0.18133175 168.26963961 -0.18249393 C175.04751456 -0.18340615 181.82530843 -0.18904286 188.60316086 -0.20731354 C194.98736375 -0.22388814 201.37141365 -0.2259044 207.75563049 -0.21717453 C210.08628883 -0.21640908 212.41695571 -0.22068117 214.74759293 -0.23063278 C258.07962913 -0.40465983 296.27158717 14.14096113 327.37026978 44.66778564 C335.82133285 53.25263113 342.72223089 62.77794547 348.81997681 73.14044189 C349.16657349 73.72519287 349.51317017 74.30994385 349.87026978 74.91241455 C362.01010239 95.68527045 368.98307225 119.22610484 368.9604187 143.32046509 C368.96487538 144.81849873 368.96487538 144.81849873 368.9694221 146.34679568 C368.97806505 149.67954963 368.97961363 153.01226748 368.98110962 156.34503174 C368.98574103 158.7406217 368.99076612 161.13621093 368.99615479 163.53179932 C369.00925242 170.03232557 369.01575642 176.53284494 369.02016544 183.03338194 C369.02293631 187.10070264 369.02717527 191.168021 369.03166962 195.23534012 C369.04385836 206.5196003 369.05415726 217.80385861 369.05754471 229.08812523 C369.05776427 229.80934851 369.05798384 230.53057179 369.05821006 231.27365033 C369.05842834 231.99650446 369.05864662 232.7193586 369.05887151 233.46411741 C369.05931496 234.92865396 369.05976152 236.3931905 369.06021118 237.85772705 C369.06043261 238.58417268 369.06065404 239.31061832 369.06088218 240.05907746 C369.06482347 251.80904907 369.08225876 263.55895841 369.1055707 275.308906 C369.12936883 287.40264135 369.14175045 299.49634558 369.14291263 311.5901047 C369.14382485 318.36797965 369.14946156 325.14577352 369.16773224 331.92362595 C369.18430684 338.30782883 369.1863231 344.69187874 369.17759323 351.07609558 C369.17682778 353.40675392 369.18109987 355.7374208 369.19105148 358.06805801 C369.36507853 401.40009422 354.81945758 439.59205226 324.29263306 470.69073486 C315.70778757 479.14179794 306.18247323 486.04269597 295.81997681 492.14044189 C295.23522583 492.48703857 294.65047485 492.83363525 294.04800415 493.19073486 C273.27514825 505.33056748 249.73431386 512.30353734 225.63995361 512.28088379 C224.64126452 512.28385491 223.64257542 512.28682603 222.61362302 512.28988719 C219.28086907 512.29853014 215.94815122 512.30007872 212.61538696 512.30157471 C210.219797 512.30620611 207.82420777 512.31123121 205.42861938 512.31661987 C198.92809313 512.3297175 192.42757376 512.3362215 185.92703676 512.34063053 C181.85971606 512.3434014 177.7923977 512.34764035 173.72507858 512.3521347 C162.4408184 512.36432345 151.15656009 512.37462235 139.87229347 512.3780098 C138.79045855 512.37833915 138.79045855 512.37833915 137.68676838 512.37867515 C136.96391424 512.37889343 136.2410601 512.3791117 135.49630129 512.3793366 C134.03176474 512.37978005 132.5672282 512.38022661 131.10269165 512.38067627 C130.37624602 512.3808977 129.64980038 512.38111913 128.90134124 512.38134727 C117.15136963 512.38528855 105.40146029 512.40272385 93.6515127 512.42603579 C81.55777735 512.44983392 69.46407312 512.46221554 57.370314 512.46337771 C50.59243905 512.46428994 43.81464518 512.46992664 37.03679276 512.48819733 C30.65258987 512.50477193 24.26853996 512.50678819 17.88432312 512.49805832 C15.55366478 512.49729287 13.2229979 512.50156496 10.89236069 512.51151657 C-32.43967552 512.68554362 -70.63163355 498.13992266 -101.73031616 467.61309814 C-110.18137924 459.02825266 -117.08227727 449.50293832 -123.18002319 439.14044189 C-123.52661987 438.55569092 -123.87321655 437.97093994 -124.23031616 437.36846924 C-139.15366328 411.83265263 -143.96888288 384.22270078 -143.82699585 354.93341064 C-143.83379502 352.5269607 -143.84271086 350.12051597 -143.85354614 347.71408081 C-143.87607264 341.2594098 -143.86761464 334.80514453 -143.85165071 328.35046768 C-143.84267249 324.30057544 -143.84447118 320.25073325 -143.84910202 316.20083618 C-143.84986819 315.52315191 -143.85063435 314.84546765 -143.85142373 314.14724749 C-143.85302277 312.7694531 -143.85464384 311.39165874 -143.85628669 310.0138644 C-143.87045789 297.17115175 -143.8542884 284.32861914 -143.82728486 271.48593605 C-143.80495393 260.5272569 -143.80883651 249.56884283 -143.83187866 238.61016846 C-143.85879081 225.80542442 -143.86908541 213.00083715 -143.85381734 200.19606876 C-143.85222502 198.82406174 -143.85065316 197.45205468 -143.84910202 196.08004761 C-143.84833064 195.40544076 -143.84755927 194.73083391 -143.84676451 194.03578442 C-143.84249339 189.33985864 -143.8498857 184.64406472 -143.86149979 179.94815063 C-143.87611257 173.59803788 -143.86562045 167.2484178 -143.8370285 160.89835739 C-143.83050645 158.58998806 -143.83215941 156.2815761 -143.84334183 153.97322464 C-144.02984188 111.50758545 -129.37532516 73.193066 -99.75082397 42.66778564 C-73.70742027 16.77431011 -36.88675524 -0.03468097 0 0 Z " fill="#4A9FE9" transform="translate(143.18002319335938,-0.14044189453125)"/>
<path d="M0 0 C8.69696665 7.2593972 16.63282289 15.29744382 24.67285156 23.26782227 C26.56609249 25.13931872 28.46320502 27.00516158 30.37011719 28.86254883 C33.12579484 31.55167909 35.86159497 34.25965582 38.59375 36.97265625 C39.45190308 37.80297867 40.31005615 38.63330109 41.19421387 39.48878479 C41.97252563 40.26987106 42.7508374 41.05095734 43.55273438 41.85571289 C44.24443726 42.53710831 44.93614014 43.21850372 45.64880371 43.92054749 C47 46 47 46 46.7779541 48.63401794 C46 51 46 51 45 53 C44.85624578 56.37822416 44.92463652 58.77390955 46 62 C47.6476038 62.71247732 49.31763529 63.37400383 51 64 C53.1171875 65.01171875 53.1171875 65.01171875 55 67 C55.74326981 69.93480261 55.8079938 72.79484875 55.8125 75.8125 C55.81693115 76.63403564 55.8213623 77.45557129 55.82592773 78.30200195 C55.59891749 84.31383863 55.59891749 84.31383863 53.015625 87.2734375 C50.5625 88.6875 50.5625 88.6875 48.06640625 89.63671875 C45.6603974 90.91441696 45.6603974 90.91441696 44.9765625 94.1875 C45.00573507 98.93290432 46.32460825 101.39333381 48.8125 105.3125 C49.36647461 106.2415918 49.36647461 106.2415918 49.93164062 107.18945312 C51.45406641 109.70678552 52.91377302 111.91377302 55 114 C59.35124629 114.51191133 62.04709713 114.19732597 65.6875 111.875 C66.780625 111.25625 67.87375 110.6375 69 110 C70.8203125 110.73046875 70.8203125 110.73046875 73 112 C73.98355469 112.36996094 74.96710938 112.73992187 75.98046875 113.12109375 C79.3269578 114.49474394 82.12119742 115.79856273 85 118 C86.03399352 120.98949592 86.14006897 123.26635851 86.0078125 126.4140625 C85.99925188 129.24762764 86.45766752 130.64927257 88 133 C91.64379989 134.82189994 95.92582485 134.22760405 99.9375 134.25 C100.85724609 134.270625 101.77699219 134.29125 102.72460938 134.3125 C104.05008789 134.32023437 104.05008789 134.32023437 105.40234375 134.328125 C106.61651978 134.34214355 106.61651978 134.34214355 107.85522461 134.35644531 C110.52149345 133.91333177 111.40659535 133.15248281 113 131 C113.16705862 128.22681005 113.16705862 128.22681005 113 125.1875 C113.171875 121.953125 113.171875 121.953125 114 119 C117.32153381 116.12430966 120.97255674 114.66709741 125 113 C126.6828728 112.02752023 128.35516888 111.03552324 130 110 C131.010625 110.66 132.02125 111.32 133.0625 112 C136.83580267 114.13871407 139.62957168 114.65968729 144 114 C148.79920999 109.84629779 153.16604676 103.96961744 154.48828125 97.67578125 C154.58700962 94.8646207 154.41652433 92.64792673 152.875 90.25 C150.86551647 88.85551099 150.86551647 88.85551099 147.97265625 87.4765625 C144.39655456 84.49726096 144.07991912 83.01837865 143.65942383 78.55102539 C143.61144653 77.35014282 143.61144653 77.35014282 143.5625 76.125 C143.52084717 75.31087646 143.47919434 74.49675293 143.4362793 73.65795898 C143.41305362 69.7816322 143.45155333 67.69915619 145.890625 64.58984375 C148.3125 63.0625 148.3125 63.0625 150.80078125 61.97265625 C153.3272589 61.09041092 153.3272589 61.09041092 155 58 C154.8773375 52.84817482 152.58981842 49.22324097 149.9609375 44.953125 C149.64382813 44.30859375 149.32671875 43.6640625 149 43 C149.33 42.34 149.66 41.68 150 41 C230.13221868 100.17339525 230.13221868 100.17339525 236.23598266 140.47553408 C238.35183474 156.0761841 238.09262748 171.81511622 237.3125 187.5 C237.28060577 188.17067552 237.24871155 188.84135104 237.21585083 189.53235006 C234.50839582 245.82431843 226.40854308 300.07864746 182.90625 339.87890625 C175.48678283 346.45393659 167.53491823 351.97768099 159 357 C158.41524902 357.34659668 157.83049805 357.69319336 157.22802734 358.05029297 C115.12405405 382.65621093 60.96840143 381.68528757 13.625 383.6875 C12.58847589 383.73278336 11.55195178 383.77806671 10.48401785 383.82472229 C-40.23467484 385.98372732 -84.43096206 385.28812306 -123.6242981 349.90305138 C-132.44564124 341.77126849 -140.54270513 333.02379095 -148.4375 324 C-149.27136183 323.0502408 -149.27136183 323.0502408 -150.12206936 322.08129454 C-164.40422032 305.77353424 -177.67274748 288.83419017 -190 271 C-188 270 -188 270 -186.18416977 270.54520094 C-185.46144001 270.83180252 -184.73871025 271.1184041 -183.99407959 271.41369057 C-178.93020395 273.18591948 -174.42287378 273.42155648 -169.09472656 273.38095093 C-168.13783558 273.3856309 -167.1809446 273.39031087 -166.19505692 273.39513266 C-163.01010247 273.40703467 -159.82558213 273.3976441 -156.640625 273.38818359 C-154.3485082 273.39225142 -152.05639336 273.39759448 -149.76428223 273.40411377 C-143.55361607 273.417768 -137.34309974 273.41249644 -131.13243103 273.40297651 C-124.62636925 273.39537017 -118.12032011 273.40242824 -111.61425781 273.40713501 C-99.99007977 273.41293889 -88.36596998 273.40362814 -76.74180269 273.388357 C-66.21455353 273.3749548 -55.68740362 273.3772832 -45.16015625 273.39111328 C-32.91824238 273.40718859 -20.67639914 273.41313283 -8.43447495 273.40427649 C-1.9604021 273.39960446 4.51360246 273.39896228 10.9876709 273.40888596 C17.07476085 273.41756505 23.16166373 273.41151622 29.24873352 273.39420319 C31.47996205 273.39024342 33.71120639 273.39136362 35.94242859 273.39799118 C38.99340565 273.40621676 42.0437872 273.39587249 45.09472656 273.38095093 C45.97285381 273.38764309 46.85098106 273.39433526 47.75571823 273.40123022 C56.86463225 273.31511222 64.84065641 270.84320734 71.59375 264.50390625 C78.06821967 257.63271662 79.34906332 250.45713697 79.24777222 241.2336731 C78.84229104 235.94174176 77.29551802 231.18743127 75.59765625 226.18359375 C75.24438766 225.09601273 74.89111908 224.0084317 74.52714539 222.88789368 C73.38921071 219.39859972 72.22662775 215.91813287 71.0625 212.4375 C70.27431 210.04180331 69.48752944 207.64564247 68.70214844 205.24902344 C67.16863243 200.57862335 65.62532645 195.91165729 64.07275391 191.24755859 C62.36671031 186.11823367 60.69332915 180.97949259 59.04296875 175.83203125 C58.27917811 173.4711819 57.51492174 171.11048312 56.75 168.75 C56.429104 167.74380615 56.10820801 166.7376123 55.77758789 165.70092773 C50.86676251 150.83787925 43.72335129 142.24658868 29.91796875 134.890625 C17.97673891 129.89744803 3.5993282 132.74462516 -8 137 C-17.38983227 140.17210914 -26.60289416 142.47783869 -36.4375 143.8125 C-37.31712402 143.93633057 -38.19674805 144.06016113 -39.10302734 144.18774414 C-40.96867597 144.41653105 -42.84158854 144.59046726 -44.71679688 144.71923828 C-47.24119309 144.93511095 -49.50388271 145.29570246 -51.97070312 145.79248047 C-58.11073564 146.74068648 -63.24788211 146.77741148 -68.61190796 143.31314087 C-75.04404731 138.10987902 -80.65749361 132.07665344 -86.24200439 125.99395752 C-88.56195465 123.48787065 -90.93552997 121.03367378 -93.3046875 118.57421875 C-97.91987936 113.76176561 -102.47976937 108.90166564 -107 104 C-102.9291205 104 -100.13223803 105.88801127 -96.625 107.75 C-78.19384629 117.08077157 -58.65793143 119.2514372 -38.609375 113.32421875 C-18.1038579 105.80109072 -3.6938652 92.43169351 6 73 C13.84593425 55.39903178 14.27056395 35.81028469 7.828125 17.70703125 C5.61126631 12.19909531 3.00030973 7.11163881 0 2 C0 1.34 0 0.68 0 0 Z " fill="#2573BD" transform="translate(280,135)"/>
<path d="M0 0 C5.09295883 1.67210922 10.19283487 3.0400671 15.42578125 4.1953125 C16.10310303 4.35032227 16.7804248 4.50533203 17.47827148 4.66503906 C47.85579781 11.19496148 80.11723249 6.77667875 109.16040039 -3.01757812 C114.6869565 -4.79900096 119.68055677 -5.73140366 125.48828125 -5.6796875 C126.26236328 -5.67324219 127.03644531 -5.66679687 127.83398438 -5.66015625 C139.64677256 -5.28886928 149.36328699 -0.52240902 157.67578125 7.8203125 C165.14735907 16.64138235 168.41376493 27.80642006 171.80859375 38.64453125 C174.08886163 45.87428788 176.41133675 53.08763249 178.798172 60.28294373 C180.2224205 64.57960864 181.63142584 68.88121344 183.03979492 73.18310547 C183.76199554 75.37779381 184.49029852 77.57048249 185.22436523 79.76123047 C186.30687508 82.99704814 187.36633403 86.23967494 188.421875 89.484375 C188.74989609 90.44711334 189.07791718 91.40985168 189.4158783 92.40176392 C192.22610243 101.17135139 193.3053137 110.79766714 189.91015625 119.58984375 C185.85451256 126.91823789 179.74947562 133.21113078 171.67578125 135.8203125 C166.88333224 137.07096076 162.1679228 136.96554207 157.25152588 136.96075439 C156.29805259 136.96372552 155.34457931 136.96669664 154.3622129 136.9697578 C151.16496899 136.97843437 147.96776256 136.97995217 144.77050781 136.98144531 C142.47898275 136.9860742 140.18745846 136.99109896 137.89593506 136.99649048 C131.66855301 137.00960922 125.44118174 137.01605836 119.21378803 137.02050114 C115.32294126 137.02343258 111.43209743 137.02753751 107.54125214 137.03200531 C96.76150216 137.04411233 85.98175603 137.05449511 75.20199966 137.0578804 C74.51251829 137.05809997 73.82303693 137.05831953 73.11266218 137.05854575 C72.42156399 137.05876403 71.73046579 137.05898231 71.01842523 137.0592072 C69.61807775 137.05965066 68.21773028 137.06009723 66.81738281 137.06054688 C65.77545948 137.06087902 65.77545948 137.06087902 64.71248719 137.06121787 C53.46063265 137.06516477 42.20884291 137.08261677 30.9570134 137.1059064 C19.39564941 137.12964291 7.83432715 137.14182551 -3.72706246 137.14324832 C-10.21462254 137.14429633 -16.70209117 137.15020351 -23.1896286 137.16806793 C-29.29306061 137.18454783 -35.39633242 137.18670439 -41.49977875 137.17792892 C-43.73746164 137.17715853 -45.97515314 137.1815016 -48.21281433 137.19138718 C-51.27274271 137.20411053 -54.33210404 137.19822746 -57.39202881 137.18780518 C-58.27288454 137.19586158 -59.15374027 137.20391798 -60.0612886 137.21221852 C-70.09918239 137.1325172 -78.21377152 134.01343935 -85.32421875 126.8203125 C-91.46054216 118.02491561 -92.29727682 109.31120298 -91.32421875 98.8203125 C-90.24288826 93.54872214 -88.6160875 88.53808538 -86.87109375 83.4609375 C-86.4077888 82.05591517 -85.9465922 80.65019609 -85.48736572 79.24383545 C-84.28656817 75.58524702 -83.05791076 71.93665742 -81.8225708 68.28961182 C-80.5779345 64.59854091 -79.36050421 60.89852913 -78.140625 57.19921875 C-75.94587632 50.5565484 -73.72678571 43.92251564 -71.49139404 37.293396 C-70.03167357 32.94980585 -68.59473282 28.59880868 -67.1628418 24.24597168 C-62.92414322 11.98582911 -55.44363341 4.06362669 -44.1328125 -1.953125 C-28.8635488 -8.62148217 -15.03252984 -4.94451593 0 0 Z " fill="#FDFEFE" transform="translate(168.32421875,272.1796875)"/>
<path d="M0 0 C2.28269629 1.70524001 4.45664947 3.48211037 6.61328125 5.34375 C7.27972656 5.91480469 7.94617188 6.48585938 8.6328125 7.07421875 C22.49383693 19.89634983 30.56568599 38.69176704 31.8984375 57.33203125 C32.57686906 77.50810131 25.44904763 96.3191464 12.30078125 111.53125 C-2.25388685 127.01702481 -20.09206019 135.12696835 -41.25512695 135.86523438 C-61.10666364 136.12523735 -78.61594911 130.49209289 -93.2109375 116.52172852 C-94.61338847 115.13966746 -96.00042228 113.7420145 -97.38671875 112.34375 C-98.12792969 111.63605469 -98.86914062 110.92835938 -99.6328125 110.19921875 C-112.91431876 96.65881373 -117.68953852 77.80874828 -117.62890625 59.41064453 C-117.31061491 39.7999194 -109.62266462 22.17920417 -96.1171875 7.953125 C-69.90954599 -16.9420175 -29.88028259 -20.73525339 0 0 Z " fill="#FEFEFE" transform="translate(261.38671875,116.65625)"/>
<path d="M0 0 C0.95003906 -0.01095703 1.90007812 -0.02191406 2.87890625 -0.03320312 C9.6653418 0.03838375 9.6653418 0.03838375 13.15625 2.23046875 C14.86924535 5.20331242 14.70766534 7.03698007 14.5 10.4375 C14.51253108 13.63237353 14.51253108 13.63237353 15.5 16.5625 C20.29400471 20.48152532 26.34428543 22.83704317 32.5 23.5625 C33.263125 23.088125 34.02625 22.61375 34.8125 22.125 C37.74807922 20.4182679 40.10221417 19.81978141 43.515625 19.9609375 C47.65364333 21.21537613 49.41031229 25.02294469 51.5 28.5625 C52.25023437 29.71298828 52.25023437 29.71298828 53.015625 30.88671875 C55.14003569 34.32429539 56.45246514 36.73856246 56.6875 40.8125 C54.51415826 45.84550192 50.28425503 48.27934142 45.5 50.5625 C44.74444795 61.27527027 44.74444795 61.27527027 48.3125 70.80078125 C50.34525326 71.97324429 52.30115438 72.76636624 54.5 73.5625 C56.20749308 76.97748616 56.28910402 79.91150464 55.5 83.5625 C49.71975453 95.08266365 49.71975453 95.08266365 44.5 98.5625 C38.43406572 99.27613933 34.59669502 97.52784983 29.5 94.5625 C28.90832031 94.97242188 28.31664062 95.38234375 27.70703125 95.8046875 C26.91683594 96.34351563 26.12664062 96.88234375 25.3125 97.4375 C24.53519531 97.97117187 23.75789063 98.50484375 22.95703125 99.0546875 C20.5323391 100.54265439 18.1666501 101.58678078 15.5 102.5625 C15.47421875 103.38234375 15.4484375 104.2021875 15.421875 105.046875 C15.33679688 106.66335938 15.33679688 106.66335938 15.25 108.3125 C15.20359375 109.37984375 15.1571875 110.4471875 15.109375 111.546875 C14.5 114.5625 14.5 114.5625 13.078125 116.92578125 C9.04970934 119.48321483 5.16885149 119.10338171 0.5 119 C-0.85351562 119.01063477 -0.85351562 119.01063477 -2.234375 119.02148438 C-9.88409662 118.94792936 -9.88409662 118.94792936 -13.5 115.5625 C-14.54976964 112.41319107 -14.60131595 110.17435544 -14.5625 106.875 C-14.55347656 105.88113281 -14.54445313 104.88726562 -14.53515625 103.86328125 C-14.52355469 103.10402344 -14.51195312 102.34476562 -14.5 101.5625 C-15.2321875 101.46324219 -15.964375 101.36398438 -16.71875 101.26171875 C-20.60862222 100.28378739 -23.094974 98.08085655 -26.21875 95.64453125 C-28.51201733 94.25016058 -28.51201733 94.25016058 -31.1640625 95.31640625 C-32.58535139 96.07458544 -33.99369153 96.85871492 -35.375 97.6875 C-38.66146851 99.04075174 -40.9868425 99.05557474 -44.5 98.5625 C-46.75555203 96.52700183 -47.93000038 95.08416093 -49.5 92.5625 C-50.05300781 91.70398438 -50.60601562 90.84546875 -51.17578125 89.9609375 C-53.65049212 85.83073039 -55.38477231 82.56662703 -55.9375 77.75 C-54.24407404 73.99501201 -53.48751855 73.95760386 -49.9375 72.25 C-47.30169217 70.71244543 -45.79949618 69.6171089 -44.94921875 66.62304688 C-44.18801666 61.30838888 -44.08224387 55.77392963 -45.5 50.5625 C-47.40975953 48.17850488 -48.7204707 47.36780926 -51.5546875 46.31640625 C-53.5 45.5625 -53.5 45.5625 -55.5 42.5625 C-56.34478899 36.83946873 -54.08061758 33.39648469 -51.125 28.75 C-50.50625 27.7300293 -50.50625 27.7300293 -49.875 26.68945312 C-46.79785579 21.7114279 -46.79785579 21.7114279 -44.5 20.5625 C-38.79077789 20.18812478 -36.38153803 20.52803042 -31.5 23.5625 C-25.58314291 22.88484286 -19.99401565 20.45227825 -15.5 16.5625 C-14.62547243 13.62012397 -14.54497158 11.3014034 -14.72265625 8.24609375 C-14.5 5.5625 -14.5 5.5625 -13.15234375 2.7578125 C-9.05783378 -0.63116335 -5.15114486 -0.12930282 0 0 Z " fill="#FDFDFE" transform="translate(379.5,151.4375)"/>
<path d="M0 0 C4.7102718 2.62833166 8.40037801 6.61325601 10.8125 11.4375 C11.53133694 18.68748399 11.71485118 24.85102136 7.24609375 30.8515625 C3.55825234 34.93129986 0.44775475 37.22287979 -5.11328125 37.67578125 C-16.46430532 37.92453495 -16.46430532 37.92453495 -21.1875 33.4375 C-25.45334125 28.95597014 -28.46189944 25.00521507 -28.5625 18.6875 C-28.42498647 13.49254434 -27.38826254 9.57809863 -24.1875 5.4375 C-17.15772574 -1.05478649 -9.19392438 -4.13726597 0 0 Z " fill="#2E71AF" transform="translate(388.1875,192.5625)"/>
<path d="M0 0 C6.78376359 5.55035203 12.85522968 11.76442027 19 18 C18.67 18.66 18.34 19.32 18 20 C13.49272353 19.39733215 10.1412037 17.63400206 6.1875 15.4375 C5.59001953 15.10814453 4.99253906 14.77878906 4.37695312 14.43945312 C2.91466002 13.63226733 1.4568601 12.81695083 0 12 C0 8.04 0 4.08 0 0 Z " fill="#3878B2" transform="translate(394,156)"/>
</svg>
